<?xml version="1.0" encoding="UTF-8" standalone="no"?>
<!-- Created with Inkscape (http://www.inkscape.org/) -->

<svg
   xmlns:dc="http://purl.org/dc/elements/1.1/"
   xmlns:cc="http://creativecommons.org/ns#"
   xmlns:rdf="http://www.w3.org/1999/02/22-rdf-syntax-ns#"
   xmlns:svg="http://www.w3.org/2000/svg"
   xmlns="http://www.w3.org/2000/svg"
   xmlns:xlink="http://www.w3.org/1999/xlink"
   xmlns:sodipodi="http://sodipodi.sourceforge.net/DTD/sodipodi-0.dtd"
   xmlns:inkscape="http://www.inkscape.org/namespaces/inkscape"
   width="400mm"
   height="400mm"
   viewBox="0 0 400 400"
   version="1.1"
   id="svg8"
   inkscape:version="0.92.4 (5da689c313, 2019-01-14)"
   sodipodi:docname="cutout-gauss.svg"
   inkscape:export-filename="C:\Users\andre\Documents\Workspace\AndroidSpace\DDC\media\bit\pro\gauss.png"
   inkscape:export-xdpi="50.799999"
   inkscape:export-ydpi="50.799999">
  <defs
     id="defs2">
    <linearGradient
       id="linearGradient2375"
       inkscape:collect="always">
      <stop
         style="stop-color:#bbf0f0;stop-opacity:0.46969697"
         offset="0"
         id="stop2381" />
      <stop
         style="stop-color:#126fc6;stop-opacity:1"
         offset="1"
         id="stop2379" />
    </linearGradient>
    <linearGradient
       inkscape:collect="always"
       xlink:href="#linearGradient2375"
       id="linearGradient2386"
       x1="133.36749"
       y1="-25.647779"
       x2="145.8009"
       y2="-25.647779"
       gradientUnits="userSpaceOnUse"
       spreadMethod="reflect"
       gradientTransform="matrix(5.3590312,0,0,5.1989921,41.184954,190.03553)" />
  </defs>
  <sodipodi:namedview
     id="base"
     pagecolor="#ffffff"
     bordercolor="#666666"
     borderopacity="1.0"
     inkscape:pageopacity="0.0"
     inkscape:pageshadow="2"
     inkscape:zoom="0.35"
     inkscape:cx="711.71707"
     inkscape:cy="727.97723"
     inkscape:document-units="mm"
     inkscape:current-layer="layer1"
     showgrid="false"
     inkscape:window-width="1278"
     inkscape:window-height="1408"
     inkscape:window-x="-7"
     inkscape:window-y="0"
     inkscape:window-maximized="0" />
  <metadata
     id="metadata5">
    <rdf:RDF>
      <cc:Work
         rdf:about="">
        <dc:format>image/svg+xml</dc:format>
        <dc:type
           rdf:resource="http://purl.org/dc/dcmitype/StillImage" />
        <dc:title></dc:title>
      </cc:Work>
    </rdf:RDF>
  </metadata>
  <g
     inkscape:label="Layer 1"
     inkscape:groupmode="layer"
     id="layer1"
     transform="translate(50,53.000008)">
    <path
       style="fill:url(#linearGradient2386);fill-opacity:1;stroke:none;stroke-width:5.27840567;stroke-miterlimit:4;stroke-dasharray:none;stroke-opacity:1"
       d="M 689.76367 0 C 660.72575 0 623.62109 56.693359 623.62109 56.693359 L 660.84766 615.06836 L 661.41797 614.49805 L 687.87305 640.95508 L 687.87305 844.40039 L 729.44922 844.40039 L 729.44922 789.45508 A 41.574799 41.574799 0 0 1 714.33008 757.4707 A 41.574799 41.574799 0 0 1 755.90625 715.89648 A 41.574799 41.574799 0 0 1 797.48047 757.4707 A 41.574799 41.574799 0 0 1 782.36133 789.49805 L 782.36133 844.40039 L 823.9375 844.40039 L 823.9375 640.95508 L 850.39453 614.49805 L 850.96484 615.06836 L 888.18945 56.693359 C 888.18945 56.693359 851.08478 0 822.04688 0 C 793.00895 0 755.90625 56.693359 755.90625 56.693359 C 755.90625 56.693359 718.80159 0 689.76367 0 z "
       transform="matrix(0.26458333,0,0,0.26458333,-50,-53.000008)"
       id="rect835" />
    <g
       id="g848" />
  </g>
</svg>
